<?xml version="1.0" standalone="no"?>
<!DOCTYPE svg PUBLIC "-//W3C//DTD SVG 20010904//EN"
 "http://www.w3.org/TR/2001/REC-SVG-20010904/DTD/svg10.dtd">
<svg version="1.0" xmlns="http://www.w3.org/2000/svg"
 width="1176.000000pt" height="1176.000000pt" viewBox="0 0 1176.000000 1176.000000"
 preserveAspectRatio="xMidYMid meet">
<metadata>
Created by potrace 1.11, written by Peter Selinger 2001-2013
</metadata>
<g transform="translate(0.000000,1176.000000) scale(0.100000,-0.100000)"
fill="#000000" stroke="none">
<path d="M362 6853 l3 -188 1243 -3 c1174 -2 1242 -3 1242 -20 0 -9 -15 -60
-34 -112 -141 -398 -337 -745 -600 -1065 -296 -359 -768 -716 -1274 -962
l-153 -74 28 -34 c165 -201 220 -264 230 -269 14 -6 184 73 327 152 816 449
1367 1053 1727 1894 96 225 237 660 227 703 -2 8 -47 48 -102 89 l-98 76
-1384 0 -1384 0 2 -187z"/>
<path d="M4470 5650 l0 -1260 1410 0 1410 0 0 1260 0 1260 -1410 0 -1410 0 0
-1260z m2410 -5 l0 -885 -1000 0 -1000 0 0 885 0 885 1000 0 1000 0 0 -885z"/>
<path d="M8310 5775 l0 -185 1495 0 1495 0 0 185 0 185 -1495 0 -1495 0 0
-185z"/>
</g>
</svg>
